<svg width="86" height="86" viewBox="0 0 86 86" fill="none" xmlns="http://www.w3.org/2000/svg">
<path d="M60.1561 73.2875L57.7743 52.9995C57.4368 50.1258 56.1241 47.4823 54.0832 45.5661C52.0422 43.6499 49.4136 42.593 46.6916 42.5941H38.4894C35.7686 42.5949 33.1418 43.6527 31.1024 45.5688C29.063 47.4848 27.7514 50.1272 27.4141 52.9995L25.0286 73.2875C24.8977 74.4022 24.9911 75.5337 25.3028 76.6069C25.6144 77.6802 26.1371 78.6706 26.8361 79.5124C27.5352 80.3542 28.3946 81.0282 29.3572 81.4896C30.3198 81.9509 31.3637 82.1891 32.4195 82.1883H52.7689C53.8244 82.1886 54.8678 81.95 55.83 81.4884C56.7922 81.0268 57.6511 80.3527 58.3498 79.5109C59.0484 78.6692 59.5707 77.6789 59.8822 76.606C60.1936 75.533 60.287 74.4018 60.1561 73.2875V73.2875Z" stroke="white" stroke-width="6" stroke-linecap="round" stroke-linejoin="round"/>
<path d="M42.5941 26.7565C48.7601 26.7565 53.7587 21.4384 53.7587 14.8783C53.7587 8.31808 48.7601 3 42.5941 3C36.4281 3 31.4295 8.31808 31.4295 14.8783C31.4295 21.4384 36.4281 26.7565 42.5941 26.7565Z" stroke="white" stroke-width="6"/>
<path d="M12.822 38.6347C16.9327 38.6347 20.2651 35.0893 20.2651 30.7158C20.2651 26.3424 16.9327 22.797 12.822 22.797C8.71134 22.797 5.37897 26.3424 5.37897 30.7158C5.37897 35.0893 8.71134 38.6347 12.822 38.6347Z" stroke="white" stroke-width="6"/>
<path d="M72.3665 38.6347C76.4771 38.6347 79.8095 35.0893 79.8095 30.7158C79.8095 26.3424 76.4771 22.797 72.3665 22.797C68.2558 22.797 64.9234 26.3424 64.9234 30.7158C64.9234 35.0893 68.2558 38.6347 72.3665 38.6347Z" stroke="white" stroke-width="6"/>
<path d="M12.822 50.5132H11.6832C9.92133 50.513 8.21647 51.1777 6.87196 52.3892C5.52746 53.6007 4.6305 55.2804 4.34067 57.1294L3.1014 65.0482C2.92355 66.1828 2.98015 67.3449 3.26726 68.4538C3.55437 69.5628 4.06509 70.5918 4.76391 71.4695C5.46272 72.3471 6.33285 73.0522 7.31377 73.5358C8.2947 74.0194 9.36286 74.2698 10.444 74.2697H23.9866" stroke="white" stroke-width="6" stroke-linecap="round" stroke-linejoin="round"/>
<path d="M72.3663 50.5132H73.5051C75.267 50.513 76.9719 51.1777 78.3164 52.3892C79.6609 53.6007 80.5578 55.2804 80.8477 57.1294L82.0869 65.0482C82.2648 66.1828 82.2082 67.3449 81.9211 68.4538C81.634 69.5628 81.1233 70.5918 80.4244 71.4695C79.7256 72.3471 78.8555 73.0522 77.8746 73.5358C76.8937 74.0194 75.8255 74.2698 74.7444 74.2697H61.2017" stroke="white" stroke-width="6" stroke-linecap="round" stroke-linejoin="round"/>
</svg>
