<svg width="23" height="23" viewBox="0 0 23 23" fill="none" xmlns="http://www.w3.org/2000/svg">
<path fill-rule="evenodd" clip-rule="evenodd" d="M11.3983 0C12.0029 0 12.5828 0.240179 13.0103 0.667699C13.4378 1.09522 13.678 1.67506 13.678 2.27967V9.11867H20.517C21.1216 9.11867 21.7015 9.35885 22.129 9.78637C22.5565 10.2139 22.7967 10.7937 22.7967 11.3983C22.7967 12.0029 22.5565 12.5828 22.129 13.0103C21.7015 13.4378 21.1216 13.678 20.517 13.678H13.678V20.517C13.678 21.1216 13.4378 21.7015 13.0103 22.129C12.5828 22.5565 12.0029 22.7967 11.3983 22.7967C10.7937 22.7967 10.2139 22.5565 9.78637 22.129C9.35885 21.7015 9.11867 21.1216 9.11867 20.517V13.678H2.27967C1.67506 13.678 1.09522 13.4378 0.667697 13.0103C0.240177 12.5828 0 12.0029 0 11.3983C0 10.7937 0.240177 10.2139 0.667697 9.78637C1.09522 9.35885 1.67506 9.11867 2.27967 9.11867H9.11867V2.27967C9.11867 1.67506 9.35885 1.09522 9.78637 0.667699C10.2139 0.240179 10.7937 0 11.3983 0Z" fill="white" fill-opacity="0.8"/>
</svg>
